<?xml version="1.0" encoding="UTF-8"?>
<svg id="Capa_1" data-name="Capa 1" xmlns="http://www.w3.org/2000/svg" viewBox="0 0 59.94 49.15">
  <defs>
    <style>
      .cls-1 {
        fill: #fff;
        stroke-width: 0px;
      }
    </style>
  </defs>
  <path class="cls-1" d="M26.44,16.42c0-4.68-.24-8.29.11-11.85.16-1.58,1.16-3.78,2.4-4.36,1.23-.57,3.64.06,4.85,1.02,8.09,6.41,16.01,13.03,23.96,19.62,3.01,2.49,2.85,5.07-.09,7.5-7.95,6.59-15.87,13.22-23.96,19.63-1.2.95-3.65,1.51-4.87.91-1.22-.6-2.13-2.82-2.28-4.42-.34-3.45-.1-6.96-.1-11.3-1.6.94-2.72,1.43-3.63,2.17-5.04,4.09-9.94,8.38-15.11,12.29-1.38,1.05-3.79,1.75-5.31,1.28-1.13-.35-2.22-2.85-2.24-4.4C-.04,31.2-.05,17.87.12,4.54.14,3.02,1.27.76,2.5.21c1.25-.56,3.62.09,4.86,1.04,4.9,3.73,9.54,7.79,14.31,11.7,1.22,1,2.54,1.87,4.76,3.48Z"/>
</svg>