<?xml version="1.0" encoding="UTF-8"?>
<svg id="Layer_1" data-name="Layer 1" xmlns="http://www.w3.org/2000/svg" xmlns:xlink="http://www.w3.org/1999/xlink" viewBox="0 0 689.55 67.34">
  <defs>
    <style>
      .cls-1 {
        fill: url(#Degradado_sin_nombre_2);
        stroke-width: 0px;
      }
    </style>
    <linearGradient id="Degradado_sin_nombre_2" data-name="Degradado sin nombre 2" x1="2742.08" y1="9339.98" x2="5747.87" y2="9339.98" gradientTransform="translate(39.12 1360.97) scale(.14 -.14)" gradientUnits="userSpaceOnUse">
      <stop offset="0" stop-color="#a0a0a0"/>
      <stop offset=".62" stop-color="#636363"/>
      <stop offset="1" stop-color="#b3b3b3"/>
    </linearGradient>
  </defs>
  <path class="cls-1" d="M636.46,41.5l8.12,8.13-8.12,8.12-8.13-8.12,8.13-8.13ZM53.1,41.5l8.11,8.13-8.12,8.12-8.12-8.12,8.13-8.13ZM368.46,40.63c3.75,2.38,8.23,4.61,13.61,6.46h-23.85c3.86-1.94,7.28-4.12,10.24-6.46h0ZM321.09,40.63c2.96,2.34,6.38,4.51,10.24,6.46h-23.83c5.37-1.85,9.84-4.08,13.6-6.46ZM601.76,38.06l11.57,11.58-11.57,11.57-11.58-11.57,11.58-11.58ZM87.8,38.06l11.57,11.58-11.57,11.56-11.57-11.56,11.57-11.58ZM363.03,5.08c.17,0,.33,0,.5.01,4.7.3,7.85,2.17,9.85,5.06,2,2.89,2.85,6.98,2.09,11.85-.6,3.86-3.34,8.04-7.45,12.02-7.31-5.6-10.95-11.44-12.7-14.7-2.21-4.12-1.5-7.51.4-10.15,1.79-2.48,4.79-4.04,7.31-4.09h0ZM326.52,5.08c2.52.05,5.53,1.61,7.31,4.09,1.9,2.64,2.61,6.03.4,10.15-1.75,3.26-5.39,9.1-12.7,14.7-4.11-3.98-6.87-8.15-7.46-12.02-.75-4.87.1-8.96,2.1-11.85,2-2.89,5.15-4.76,9.85-5.06.16-.01.33-.02.5-.01h0ZM326.58,0c-.29,0-.59,0-.88.02-5.97.39-10.8,3.06-13.7,7.23-2.89,4.17-3.86,9.66-2.95,15.53.77,4.98,3.83,9.71,8.1,14.09-8.54,5.16-21,9.65-40.77,10.17-4.77-.25-9.91-1.5-13.39-3.68-1.95-1.22-3.36-2.69-4.13-4.36-.77-1.68-.99-3.63-.27-6.27.71-2.6,2.1-4.07,3.78-4.95,1.69-.88,3.75-1.08,5.6-.67,1.85.42,3.39,1.43,4.21,2.7.81,1.27,1.12,2.84.18,5.27-.25.66-.24,1.3.04,1.95.28.64.75,1.09,1.41,1.35.65.25,1.3.24,1.94-.04.64-.28,1.09-.75,1.34-1.4,1.42-3.65,1.04-7.23-.64-9.86-1.68-2.62-4.42-4.26-7.37-4.92-2.95-.67-6.19-.38-9.06,1.11-2.87,1.49-5.28,4.28-6.34,8.12-.98,3.59-.72,6.95.55,9.73,1.04,2.28,2.7,4.14,4.67,5.62-40.04-2.38-60.3-16.4-75.29-25.33C165.59,8.68,148.32,2.67,134.12.81c-7.12-.93-13.46-.88-18.78-.05-5.32.82-9.62,2.42-12.69,4.56-6.53,4.56-7.33,13.3-2.16,17.68,3.99,3.38,9.14,3.02,12.19.41,1.52-1.3,2.6-3.19,2.7-5.33.11-2.14-.83-4.4-2.65-6.21-.5-.49-1.1-.74-1.8-.73-.7,0-1.3.26-1.79.75-.49.5-.74,1.1-.74,1.8,0,.7.25,1.3.75,1.79,1.01,1,1.18,1.74,1.15,2.34-.03.6-.34,1.21-.93,1.72-1.19,1.02-3.27,1.54-5.58-.42-2.42-2.05-2.55-6.62,1.77-9.64,4.27-2.98,14.52-5.39,27.89-3.63,4.83.63,10.08,1.79,15.64,3.58-1.24.02-2.43.12-3.54.31-2.95.49-5.44,1.56-7.39,3.23-4.94,4.24-7.57,9.33-7.77,14.32-.2,4.99,2.11,9.74,6.3,12.97,5.92,4.57,13.33,4.23,18.21.7,2.44-1.76,4.29-4.37,4.89-7.48.61-3.11-.07-6.63-2.21-10.04-.37-.6-.9-.98-1.59-1.13-.69-.16-1.33-.05-1.92.33-.6.37-.98.9-1.13,1.59-.16.69-.05,1.33.33,1.92,1.58,2.52,1.87,4.63,1.53,6.37-.34,1.75-1.35,3.22-2.87,4.32-3.03,2.19-7.92,2.65-12.13-.6-3.04-2.35-4.45-5.39-4.32-8.74.14-3.35,1.9-7.15,6-10.67,2.18-1.87,6.65-2.97,13.41-1.82,6.75,1.15,15.62,4.5,26.14,10.77,10.51,6.27,24.6,15.58,46.8,21.31h-123.8l-14.42-14.43c-.5-.5-1.1-.75-1.8-.75s-1.3.25-1.8.75l-14.42,14.43h-5.71l-10.97-10.97c-.5-.5-1.1-.75-1.8-.75s-1.3.25-1.8.75l-10.98,10.97h-15.3c-5.22,0-11.22-1.28-15.11-3.72-1.95-1.22-3.35-2.68-4.12-4.36-.77-1.68-1-3.63-.28-6.27.71-2.6,2.09-4.07,3.78-4.95,1.69-.88,3.75-1.08,5.6-.66,1.85.42,3.39,1.43,4.2,2.7.81,1.27,1.13,2.84.19,5.27-.26.65-.24,1.3.04,1.95.28.64.75,1.09,1.41,1.35.65.25,1.3.24,1.95-.04.64-.28,1.09-.75,1.35-1.41,1.42-3.65,1.04-7.23-.64-9.85-1.68-2.62-4.42-4.26-7.37-4.92-1.48-.33-3.02-.43-4.56-.25-1.54.17-3.07.62-4.5,1.36-2.87,1.49-5.29,4.27-6.34,8.12-.98,3.59-.72,6.95.56,9.74,1.28,2.79,3.47,4.94,6.04,6.55,5.13,3.22,11.83,4.5,17.82,4.5h15.31l10.98,10.98c.5.5,1.1.74,1.8.74s1.3-.25,1.8-.74l10.97-10.98h5.72l14.41,14.42c.5.5,1.1.75,1.8.75s1.3-.25,1.8-.75l14.41-14.42h166.5c.15,0,.31,0,.46,0,1.03.01,2.04,0,3.05,0h3.52c.19,0,.38,0,.56,0,.02,0,.05,0,.08,0h66.59s0,0,.01,0h70.9c.96,0,1.92,0,2.91,0h166.95l14.42,14.42c.5.5,1.1.74,1.8.74s1.3-.25,1.8-.74l14.42-14.42h5.72l10.98,10.98c.5.5,1.1.74,1.8.74s1.3-.25,1.8-.74l10.98-10.98h15.31c5.99,0,12.69-1.28,17.82-4.51,2.57-1.61,4.76-3.77,6.04-6.55,1.28-2.79,1.55-6.14.56-9.73-1.05-3.85-3.48-6.63-6.35-8.12-2.87-1.49-6.11-1.77-9.06-1.11-2.95.66-5.69,2.3-7.37,4.92-1.68,2.62-2.06,6.21-.64,9.86.26.65.7,1.12,1.34,1.4.64.28,1.29.3,1.94.04.66-.25,1.13-.7,1.41-1.34.28-.64.3-1.29.04-1.95-.95-2.43-.64-3.99.18-5.27.81-1.27,2.36-2.29,4.21-2.7,1.85-.42,3.91-.21,5.6.67s3.07,2.34,3.78,4.95c.72,2.64.5,4.59-.27,6.27-.77,1.68-2.17,3.14-4.12,4.36-3.9,2.45-9.89,3.73-15.11,3.73h-15.3l-10.99-10.98c-.5-.5-1.1-.74-1.8-.74s-1.3.25-1.8.74l-10.99,10.98h-5.7l-14.43-14.43c-.5-.5-1.1-.74-1.8-.74s-1.3.25-1.8.74l-14.43,14.43h-123.8c22.2-5.72,36.29-15.04,46.81-21.31,10.52-6.27,19.38-9.62,26.14-10.77,6.76-1.15,11.23-.05,13.41,1.82,4.1,3.52,5.86,7.31,6,10.67.14,3.35-1.28,6.4-4.32,8.74-4.21,3.25-9.09,2.79-12.13.6-1.52-1.09-2.53-2.57-2.87-4.32-.34-1.75-.05-3.85,1.53-6.37.37-.6.48-1.24.33-1.92-.16-.69-.54-1.22-1.13-1.59-.6-.37-1.24-.48-1.92-.32-.69.16-1.21.54-1.59,1.13-2.13,3.41-2.81,6.93-2.21,10.04.61,3.11,2.45,5.72,4.89,7.48,4.88,3.52,12.3,3.86,18.21-.7,4.19-3.23,6.5-7.98,6.3-12.97-.2-4.99-2.84-10.08-7.77-14.32-1.94-1.67-4.43-2.74-7.39-3.23-1.12-.19-2.3-.29-3.55-.31,5.56-1.79,10.81-2.95,15.64-3.58,13.37-1.75,23.63.65,27.9,3.63,4.32,3.02,4.2,7.59,1.77,9.64-2.31,1.96-4.39,1.44-5.59.42-.6-.51-.9-1.11-.93-1.72-.03-.6.14-1.34,1.15-2.34.5-.49.75-1.09.76-1.79,0-.7-.24-1.3-.73-1.8-.49-.5-1.09-.75-1.79-.75-.7,0-1.3.24-1.8.74-1.82,1.81-2.75,4.06-2.65,6.2.11,2.14,1.18,4.03,2.7,5.33,3.05,2.61,8.19,2.97,12.18-.41,5.17-4.39,4.38-13.12-2.15-17.68-3.07-2.15-7.37-3.74-12.69-4.56-5.32-.82-11.65-.88-18.78.05-14.2,1.86-31.47,7.86-49.5,20.58,0,0-.01,0-.01,0-14.99,8.94-35.25,22.95-75.29,25.33,1.97-1.48,3.63-3.34,4.68-5.62,1.28-2.79,1.54-6.14.55-9.73-1.05-3.85-3.47-6.63-6.34-8.12-2.87-1.49-6.12-1.77-9.07-1.11-2.95.66-5.68,2.3-7.36,4.92-1.68,2.62-2.07,6.21-.65,9.86.25.66.7,1.12,1.35,1.41.64.28,1.29.3,1.95.04.65-.26,1.12-.7,1.41-1.35.28-.64.3-1.29.04-1.95-.95-2.43-.63-3.99.19-5.27.81-1.27,2.36-2.29,4.21-2.7,1.85-.42,3.91-.21,5.6.67,1.69.88,3.07,2.34,3.78,4.95.72,2.64.49,4.59-.28,6.27-.77,1.68-2.17,3.14-4.12,4.36-3.48,2.18-8.61,3.43-13.39,3.68-19.77-.52-32.23-5.01-40.77-10.17,4.27-4.38,7.33-9.11,8.1-14.09.91-5.87-.05-11.36-2.95-15.53-2.89-4.17-7.73-6.84-13.7-7.23-4.72-.3-9.37,2.17-12.26,6.18-2.89,4-3.82,9.84-.77,15.52,1.67,3.1,5.86,9.51,13.33,15.57-4.99,3.76-11.32,7.21-19.38,9.68-8.06-2.47-14.39-5.92-19.38-9.68,7.48-6.05,11.67-12.46,13.33-15.57,3.05-5.68,2.12-11.51-.77-15.52C335.25,2.45,331,.04,326.58,0h0Z"/>
</svg>