<?xml version="1.0" encoding="UTF-8"?>
<svg id="Capa_1" data-name="Capa 1" xmlns="http://www.w3.org/2000/svg" viewBox="0 0 81.08 81.08">
  <defs>
    <style>
      .cls-1 {
        fill: none;
      }

      .cls-1, .cls-2, .cls-3 {
        stroke-width: 0px;
      }

      .cls-2 {
        fill: #ffffff;
      }

      .cls-3 {
        fill: #989898;
      }
    </style>
  </defs>
  <circle class="cls-3" cx="40.54" cy="40.54" r="40.54"/>
  <path class="cls-2" d="M69.99,41.57c.02,1.42-.04,2.85-.21,4.27-.19,1.41-.45,2.82-.83,4.2-.39,1.38-.86,2.74-1.45,4.05-.59,1.31-1.27,2.59-2.04,3.81-3.08,4.88-7.67,8.85-13.03,11.21-5.35,2.38-11.45,3.13-17.3,2.1-5.85-1.01-11.42-3.81-15.77-7.97-4.35-4.15-7.48-9.64-8.79-15.6-1.33-5.95-.87-12.33,1.38-18.1,2.23-5.77,6.22-10.87,11.36-14.46,1.28-.9,2.64-1.69,4.03-2.41,1.4-.71,2.87-1.29,4.36-1.79,1.5-.5,3.04-.86,4.59-1.14,1.36-.23,2.72-.36,4.09-.43l.87-3.87,9.75,9.02-12.69,3.94.55-2.43c-4.33.24-8.61,1.59-12.33,3.95-4.34,2.72-7.88,6.79-9.98,11.53-2.13,4.74-2.81,10.17-1.91,15.38.88,5.2,3.36,10.17,7.06,14.05,3.69,3.9,8.58,6.7,13.89,7.88,5.31,1.2,11.02.81,16.17-1.19,5.16-1.98,9.75-5.54,12.97-10.13.81-1.15,1.52-2.36,2.17-3.61.64-1.26,1.16-2.57,1.62-3.9.45-1.34.77-2.72,1.02-4.11.24-1.4.37-2.81.42-4.23"/>
  <rect class="cls-1" x="9.84" y="5.44" width="60.16" height="66.22"/>
  <path class="cls-2" d="M41.03,18.62c-.32,0-.58.26-.58.58v1.89c0,.32.26.58.58.58s.58-.26.58-.58v-1.89c0-.32-.26-.58-.58-.58"/>
  <path class="cls-2" d="M20.55,41h-1.89c-.32,0-.58.26-.58.58s.26.58.58.58h1.89c.32,0,.58-.26.58-.58s-.26-.58-.58-.58"/>
  <path class="cls-2" d="M41.03,61.48c-.32,0-.58.26-.58.58v1.89c0,.32.26.58.58.58s.58-.26.58-.58v-1.89c0-.32-.26-.58-.58-.58"/>
  <path class="cls-2" d="M63.4,41h-1.89c-.32,0-.58.26-.58.58s.26.58.58.58h1.89c.32,0,.58-.26.58-.58s-.26-.58-.58-.58"/>
  <path class="cls-2" d="M30.53,22.81c-.08-.14-.26-.19-.4-.11-.14.08-.19.26-.11.4l.51.89c.05.09.15.14.25.14.05,0,.1-.01.14-.04.14-.08.19-.26.11-.4l-.51-.89"/>
  <path class="cls-2" d="M23.44,31.08l-.89-.51c-.14-.08-.32-.03-.4.11-.08.14-.03.32.11.4l.89.51s.1.04.14.04c.1,0,.2-.05.25-.14.08-.14.03-.32-.11-.4"/>
  <path class="cls-2" d="M23.15,51.56l-.89.51c-.14.08-.19.26-.11.4.05.09.15.14.25.14.05,0,.1-.01.14-.04l.89-.51c.14-.08.19-.26.11-.4-.08-.14-.26-.19-.4-.11"/>
  <path class="cls-2" d="M30.93,59.06c-.14-.08-.32-.03-.4.11l-.51.89c-.08.14-.03.32.11.4.05.03.1.04.14.04.1,0,.2-.05.25-.14l.51-.89c.08-.14.03-.32-.11-.4"/>
  <path class="cls-2" d="M51.52,59.17c-.08-.14-.26-.19-.4-.11-.14.08-.19.26-.11.4l.51.89c.05.09.15.14.25.14.05,0,.1-.01.14-.04.14-.08.19-.26.11-.4l-.51-.89"/>
  <path class="cls-2" d="M59.8,52.08l-.89-.51c-.14-.08-.32-.03-.4.11-.08.14-.03.32.11.4l.89.51s.1.04.14.04c.1,0,.2-.05.25-.14.08-.14.03-.32-.11-.4"/>
  <path class="cls-2" d="M59.51,30.57l-.89.51c-.14.08-.19.26-.11.4.05.09.15.14.25.14.05,0,.1-.01.14-.04l.89-.51c.14-.08.19-.26.11-.4-.08-.14-.26-.19-.4-.11"/>
  <path class="cls-2" d="M51.93,22.7c-.14-.08-.32-.03-.4.11l-.51.89c-.08.14-.03.32.11.4.05.03.1.04.14.04.1,0,.2-.05.25-.14l.51-.89c.08-.14.03-.32-.11-.4"/>
  <rect class="cls-1" x="9.84" y="5.43" width="60.8" height="66.69"/>
</svg>