<?xml version="1.0" encoding="UTF-8"?>
<svg id="Capa_1" data-name="Capa 1" xmlns="http://www.w3.org/2000/svg" viewBox="0 0 81.08 81.08">
  <defs>
    <style>
      .cls-1 {
        fill: none;
      }

      .cls-1, .cls-2, .cls-3 {
        stroke-width: 0px;
      }

      .cls-2 {
        fill: #ffffff;
      }

      .cls-3 {
        fill: #989898;
      }
    </style>
  </defs>
  <circle class="cls-3" cx="40.54" cy="40.54" r="40.54"/>
  <path class="cls-2" d="M32.08,27.45c0,4.66,3.77,8.46,8.43,8.49,4.63.03,8.49-3.8,8.49-8.44s-3.77-8.47-8.44-8.47c-4.67-.02-8.47,3.75-8.47,8.43ZM40.5,59.61c-4.37-7.79-9.38-15.05-12.75-23.19-1.2-2.91-2.03-5.92-1.95-9.12.21-7.38,6.07-13.53,13.53-14.18,7.38-.65,14.21,4.51,15.65,11.79.74,3.72-.03,7.24-1.33,10.69-1.84,4.88-4.48,9.36-7.1,13.85-1.87,3.2-3.75,6.37-5.64,9.55-.11.16-.22.32-.41.62Z"/>
  <path class="cls-2" d="M37.1,56.98c-1.03.27-2.03.49-2.98.81-.55.17-1.11.44-1.58.78-1.38.9-1.39,2.09.03,2.9.97.55,2.04.97,3.14,1.2,3.72.81,7.46.78,11.12-.4.71-.22,1.41-.59,2.01-1.05,1-.74,1.05-1.82-.03-2.42-1.22-.7-2.63-1.08-3.96-1.58-.25-.1-.54-.11-.82-.16.48-1.43.55-1.55,1.93-1.2,1.52.4,3.03.89,4.48,1.47.63.25,1.2.74,1.68,1.25.86.9.89,2.03-.03,2.87-.74.7-1.65,1.3-2.6,1.69-3.66,1.49-7.51,1.71-11.41,1.44-2.41-.17-4.77-.57-6.97-1.62-.7-.33-1.39-.78-1.96-1.3-1.12-1.03-1.14-2.33.02-3.31.78-.67,1.73-1.19,2.66-1.58,1-.43,2.09-.67,3.17-.9,1.39-.32,1.41-.29,2.11,1.11Z"/>
  <rect class="cls-1" x="25.72" y="12.38" width="29.42" height="52.96"/>
</svg>