<?xml version="1.0" encoding="UTF-8"?>
<svg id="Capa_1" data-name="Capa 1" xmlns="http://www.w3.org/2000/svg" viewBox="0 0 29.49 40.88">
  <defs>
    <style>
      .cls-1 {
        fill: #fff;
        stroke-width: 0px;
      }
    </style>
  </defs>
  <path class="cls-1" d="M8.8,20.46c0,5.3-.03,10.59,0,15.89.02,2.38-.84,4.45-4.17,4.53C1.04,40.96,0,38.84,0,36.29.02,25.7.02,15.11.02,4.52.02,2.17.81.09,4.2,0c3.68-.09,4.63,2.01,4.62,4.57-.03,5.3,0,10.59-.01,15.89Z"/>
  <path class="cls-1" d="M20.73,20.21c0-5.16.03-10.32-.01-15.48C20.69,2.22,21.44-.01,25.12,0c3.69.02,4.37,2.31,4.37,4.78-.01,10.45,0,20.9,0,31.35,0,2.48-.79,4.75-4.45,4.73-3.68-.02-4.34-2.29-4.31-4.79.07-5.29.02-10.58.02-15.87h-.02Z"/>
</svg>