<?xml version="1.0" encoding="UTF-8"?>
<svg id="Capa_1" data-name="Capa 1" xmlns="http://www.w3.org/2000/svg" xmlns:xlink="http://www.w3.org/1999/xlink" viewBox="0 0 81.08 81.08">
  <defs>
    <style>
      .cls-1 {
        fill: none;
      }

      .cls-1, .cls-2, .cls-3 {
        stroke-width: 0px;
      }

      .cls-2 {
        fill: #ffffff;
      }

      .cls-4 {
        clip-path: url(#clippath);
      }

      .cls-3 {
        fill: #989898;
      }
    </style>
    <clipPath id="clippath">
      <rect class="cls-1" x="8.5" y="17.75" width="66.69" height="35.3"/>
    </clipPath>
  </defs>
  <circle class="cls-3" cx="40.54" cy="40.54" r="40.54"/>
  <g class="cls-4">
    <path class="cls-2" d="M37.59,23.33c0,1.49-2.28,1.51-2.27-.03.02-3.25,3.44-5.56,5.92-5.41,2.69.05,4.56,1.53,5.47,3.46,1.64,3.47.06,7.93-4.33,8.81v1.27l28.86,14.79c3.68,1.89,2.13,7-2.22,7H13.47c-.9,0-1.73-.23-2.49-.7h0c-2.44-1.54-2.43-4.92.27-6.31,9.62-4.93,19.24-9.86,28.86-14.79v-2.27h0c0-.3.1-.56.31-.78.2-.22.46-.34.75-.36,5.56-.37,4.85-7.86-.04-7.86-1.51,0-3.52,1.36-3.53,3.16h0ZM41.24,33.4l-28.96,14.85c-1.06.55-1.1,1.7-.09,2.36h0c.39.23.82.35,1.28.34h55.55c1.98,0,2.72-1.91,1.19-2.7l-28.96-14.85Z"/>
  </g>
</svg>