<?xml version="1.0" encoding="UTF-8"?>
<svg id="Capa_1" data-name="Capa 1" xmlns="http://www.w3.org/2000/svg" viewBox="0 0 60.02 49.23">
  <defs>
    <style>
      .cls-1 {
        fill: #fff;
        stroke-width: 0px;
      }
    </style>
  </defs>
  <path class="cls-1" d="M33.42,16.85c6.88-5.66,12.43-10.41,18.21-14.86,1.53-1.18,4.46-2.49,5.55-1.81,1.52.94,2.64,3.68,2.67,5.68.23,12.64.21,25.29-.01,37.93-.03,1.84-1.15,4.38-2.57,5.24-1.09.65-3.8-.42-5.21-1.48-4.78-3.6-9.29-7.55-13.93-11.34-1.21-.99-2.49-1.89-4.74-3.58,0,4.78.23,8.39-.1,11.95-.15,1.58-1.07,3.82-2.28,4.38-1.24.57-3.67-.03-4.88-.99-8.08-6.41-15.97-13.05-23.92-19.62-3.01-2.49-2.89-5.06.02-7.48C10.17,14.27,18.08,7.66,26.16,1.25c1.21-.96,3.62-1.59,4.84-1.02,1.22.57,2.17,2.79,2.32,4.37.34,3.57.11,7.19.11,12.24Z"/>
</svg>