<?xml version="1.0" encoding="UTF-8"?>
<svg id="Capa_1" data-name="Capa 1" xmlns="http://www.w3.org/2000/svg" viewBox="0 0 81.08 81.08">
  <defs>
    <style>
      .cls-1 {
        fill: #ffffff;
      }

      .cls-1, .cls-2 {
        stroke-width: 0px;
      }

      .cls-2 {
        fill: #989898;
      }
    </style>
  </defs>
  <circle class="cls-2" cx="40.54" cy="40.54" r="40.54"/>
  <path class="cls-1" d="M20.45,39.79c-1.71-.24-2.16-.77-2.16-2.43,0-2.92,0-5.84,0-8.76,0-1.64.6-2.23,2.2-2.23,3.87,0,7.74,0,11.62,0h1.14c-1.48-1.18-2.88-2.19-4.16-3.35-1.55-1.39-2.72-3.05-2.76-5.25-.05-2.39,1.91-5.04,4.34-5.94,2.38-.88,4.47-.26,6.26,1.89,1.71,2.06,2.7,4.49,3.52,7,.11.33.2.67.31,1,.02.06.1.09.1.09.84-1.63,1.55-3.37,2.57-4.91,1.16-1.75,2.81-2.94,5.09-2.44,2.3.51,4.02,1.79,4.72,4.15.38,1.27.09,2.52-.7,3.49-1.2,1.49-2.58,2.83-3.84,4.2,0,0,.25.04.49.04,3.59,0,7.18,0,10.77,0,1.54,0,2.18.63,2.18,2.16,0,2.92,0,5.84,0,8.77,0,1.73-.45,2.25-2.25,2.5v1.54c0,6.41,0,12.81,0,19.22,0,1.79-.6,2.38-2.41,2.38-11.51,0-23.02,0-34.53,0-1.84,0-2.38-.53-2.38-2.37,0-6.48,0-12.97,0-19.45,0-.42-.07-.84-.11-1.31ZM36.88,59.29v-21.12h-12.69v21.12h12.69ZM43.71,38.16v21.09h12.53v-21.09h-12.53ZM21.93,35.91h14.97v-5.92h-14.97v5.92ZM58.48,30.02h-14.79v5.86h14.79v-5.86ZM37.79,24.54c-.32-1.11-.48-2.08-.87-2.96-.85-1.91-1.74-3.81-2.78-5.62-.28-.48-1.17-.94-1.72-.88-2.22.23-3.18,2.73-1.74,4.42,1.89,2.23,4.38,3.63,7.12,5.04ZM44.05,24.46c1.49-.42,4.84-2.95,5.46-4.15.16-.31.27-.79.14-1.08-.59-1.37-2.43-1.56-3.3-.36-1.21,1.66-1.82,3.57-2.3,5.58Z"/>
</svg>